<?xml version="1.0" encoding="utf-8"?>
<!-- Generator: Adobe Illustrator 26.3.1, SVG Export Plug-In . SVG Version: 6.00 Build 0)  -->
<svg version="1.1" id="Layer_1" xmlns="http://www.w3.org/2000/svg" xmlns:xlink="http://www.w3.org/1999/xlink" x="0px" y="0px"
	 viewBox="0 0 144 48" style="enable-background:new 0 0 144 48;" xml:space="preserve">
<style type="text/css">
	.st0{fill:white;}
</style>
<path class="st0" d="M56.1,27.4c0,0.2-0.1,0.4-0.2,0.6c-0.1,0.2-0.4,0.2-0.6,0.2l0,0c-0.2,0-0.4-0.1-0.6-0.2
	c-0.2-0.2-0.2-0.4-0.2-0.6v-7.3c0-1.5,0.6-2.9,1.7-4c1-1.1,2.5-1.7,4-1.7s2.9,0.6,4,1.7c1.1,1,1.7,2.5,1.6,4v7.3
	c0,0.2-0.1,0.4-0.2,0.6s-0.4,0.2-0.6,0.2l0,0c-0.2,0-0.4-0.1-0.6-0.2c-0.2-0.2-0.2-0.4-0.2-0.6v-7.3c0-1.1-0.4-2.1-1.2-2.8
	c-0.9-0.8-1.9-1.2-3-1.2s-2.1,0.4-2.8,1.2c-0.7,0.7-1.2,1.8-1.1,2.8V27.4z M70,22.6c0,1.1,0.4,2.1,1.2,2.8c0.7,0.8,1.8,1.2,2.8,1.2
	c1.1,0,2.1-0.4,2.8-1.2c0.8-0.7,1.2-1.8,1.2-2.8v-7.3c0-0.2,0.1-0.4,0.2-0.6c0.2-0.2,0.4-0.2,0.6-0.2l0,0c0.2,0,0.4,0.1,0.6,0.2
	c0.2,0.2,0.2,0.4,0.2,0.6v7.3c0,1.5-0.6,2.9-1.6,4s-2.5,1.7-4,1.7s-2.9-0.6-4-1.7c-1.1-1-1.7-2.5-1.6-4v-7.3c0-0.2,0.1-0.4,0.2-0.6
	c0.1-0.2,0.4-0.2,0.6-0.2l0,0c0.2,0,0.4,0.1,0.6,0.2c0.2,0.2,0.2,0.4,0.2,0.6V22.6z M88,14.5c0.2,0,0.4,0.1,0.6,0.2
	c0.1,0.2,0.2,0.4,0.2,0.6l0,0c0,0.2-0.1,0.4-0.2,0.6c-0.2,0.1-0.4,0.2-0.6,0.2h-0.8c-0.9,0-1.8,0.3-2.4,1c-0.6,0.6-1,1.5-1,2.4v7.9
	c0,0.2-0.1,0.4-0.2,0.6s-0.4,0.2-0.6,0.2l0,0c-0.2,0-0.4-0.1-0.6-0.2c-0.2-0.2-0.2-0.4-0.2-0.6v-7.9c0-1.3,0.5-2.6,1.5-3.6
	c0.9-1,2.2-1.5,3.6-1.5L88,14.5z M96.7,16.2c-1.4,0-2.7,0.5-3.7,1.5s-1.5,2.3-1.5,3.7c0,1.4,0.5,2.7,1.5,3.7s2.3,1.6,3.7,1.5
	c1.4,0,2.7-0.5,3.7-1.5s1.5-2.3,1.5-3.7c0-1.4-0.5-2.7-1.5-3.7C99.4,16.7,98.1,16.1,96.7,16.2L96.7,16.2z M96.7,14.5
	c1.8,0,3.6,0.7,4.8,2c1.3,1.3,2,3,2,4.9c0,1.8-0.7,3.6-2,4.9s-3,2-4.8,2s-3.6-0.7-4.8-2c-1.3-1.3-2-3-2-4.9c0-1.8,0.7-3.6,2-4.9
	S94.9,14.4,96.7,14.5L96.7,14.5z M107.5,27.4c0,0.2-0.1,0.4-0.2,0.6s-0.4,0.2-0.6,0.2l0,0c-0.2,0-0.4-0.1-0.6-0.2
	c-0.2-0.2-0.2-0.4-0.2-0.6v-7.3c0-1.5,0.6-2.9,1.6-4s2.5-1.7,4-1.7s2.9,0.6,4,1.7c1.1,1,1.7,2.5,1.6,4v7.3c0,0.2-0.1,0.4-0.2,0.6
	s-0.4,0.2-0.6,0.2l0,0c-0.2,0-0.4-0.1-0.6-0.2c-0.2-0.2-0.2-0.4-0.2-0.6v-7.3c0-1.1-0.4-2.1-1.2-2.8c-0.7-0.8-1.7-1.2-2.8-1.2
	c-1.1,0-2.1,0.4-2.8,1.2c-0.8,0.7-1.2,1.8-1.2,2.8L107.5,27.4z M121.1,14.5c0.2,0,0.4,0.1,0.6,0.2c0.2,0.2,0.2,0.4,0.2,0.6v12.1
	c0,0.2-0.1,0.4-0.2,0.6s-0.4,0.2-0.6,0.2l0,0c-0.2,0-0.4-0.1-0.6-0.2c-0.2-0.2-0.2-0.4-0.2-0.6V15.3c0-0.2,0.1-0.4,0.2-0.6
	C120.6,14.6,120.8,14.5,121.1,14.5L121.1,14.5z M121.1,11.1c-0.3,0-0.6-0.1-0.8-0.3c-0.2-0.2-0.3-0.4-0.3-0.7s0.1-0.6,0.3-0.7
	c0.2-0.2,0.5-0.3,0.8-0.3s0.5,0.1,0.7,0.3s0.3,0.5,0.3,0.7c0,0.3-0.1,0.6-0.3,0.8C121.6,11,121.4,11.1,121.1,11.1L121.1,11.1z
	 M131.5,14.5c0.7,0,1.4,0.1,2.1,0.3c0.4,0.1,0.6,0.4,0.6,0.8v0.1c0,0.3-0.1,0.5-0.3,0.7c-0.2,0.2-0.5,0.2-0.7,0.1
	c-0.5-0.2-1-0.3-1.6-0.3c-1.4,0-2.7,0.5-3.7,1.5s-1.5,2.3-1.5,3.7c0,1.4,0.5,2.7,1.5,3.7s2.3,1.6,3.7,1.5c0.5,0,1.1-0.1,1.6-0.2
	c0.2-0.1,0.5-0.1,0.7,0.1s0.3,0.4,0.3,0.7c0,0.4-0.2,0.7-0.6,0.8c-0.7,0.2-1.4,0.3-2.1,0.3c-1.8,0-3.6-0.7-4.8-2c-1.3-1.3-2-3-2-4.9
	c0-1.8,0.7-3.6,2-4.9C127.9,15.2,129.7,14.4,131.5,14.5L131.5,14.5z M139.7,16.1c-0.6,0-1.1,0.2-1.5,0.6s-0.6,1-0.6,1.5
	c0,0.8,0.4,1.6,1.2,1.9s1.6,0.5,2.4,0.7c0.7,0.2,1.4,0.5,2,1c0.6,0.6,0.9,1.5,0.9,2.4c0,1-0.4,2-1.1,2.7c-0.7,0.7-1.7,1.1-2.7,1.1
	h-3.5c-0.2,0-0.4-0.1-0.6-0.2c-0.2-0.2-0.2-0.4-0.2-0.6l0,0c0-0.2,0.1-0.4,0.2-0.6c0.1-0.2,0.4-0.2,0.6-0.2h3.6
	c0.6,0,1.1-0.2,1.5-0.6s0.6-1,0.6-1.5c0-0.8-0.5-1.5-1.2-1.8c-0.2-0.1-1-0.3-2.4-0.7c-0.7-0.2-1.4-0.5-2-1c-0.6-0.7-0.9-1.6-0.9-2.5
	c0-1,0.4-2,1.1-2.7c0.7-0.7,1.7-1.1,2.7-1.1h2.4c0.2,0,0.4,0.1,0.6,0.2c0.2,0.2,0.2,0.4,0.2,0.6l0,0c0,0.2-0.1,0.4-0.2,0.6
	c-0.2,0.2-0.4,0.2-0.6,0.2H139.7z M47.2,23.6c0.4,0.1,0.7,0.5,0.7,1c0,0-0.1-1-0.9-1.1l0,0c-0.1-0.1-0.2-0.3-0.3-0.4
	c-0.4-0.4-0.9-0.7-1.4-0.9c-0.7-0.1-1.4-0.4-2-0.8c0,0-0.9-0.9,0-1.1h0.2c0.1,0.5,0.4,0.8,0.7,0.8c0.3-0.1,0.5-0.6,0.4-1.1
	s-0.5-1-0.8-0.9s-0.5,0.5-0.4,1.1c-0.1,0-0.3,0-0.3,0s-1,0.1-0.4-1c0.2-0.3,0.4-0.5,0.7-0.6c2.5-1,3.9,2.2,3.9,2.2
	c-0.3-1.1-1.1-2-2.2-2.5c0.3-0.1,1,0.3,1,0.3c0.2,0.1,0.3,0.2,0.5,0.2c-0.2-0.1-0.3-0.2-0.5-0.3c-0.3-0.3-0.7-0.4-1.1-0.4
	c-0.7-0.1-1.4-0.3-2.1-0.6c-0.2-0.1-0.4-0.2-0.6-0.3c-0.3-0.2-1-0.7,0-1.2c0.2,0.4,0.5,0.7,0.6,0.7c0.1-0.1,0.1-0.6-0.1-1.1
	c-0.2-0.5-0.6-0.9-0.7-0.8s-0.1,0.5,0.1,1l0,0c-0.6,0.1-1.1-0.2-1.3-0.7c0-0.1,0-0.2,0-0.3c0-0.8,0.7-1.1,1.2-1.5
	c0.4-0.3,0.6-0.8,0.7-1.3c-0.1,0.4-0.3,0.8-0.6,1.1l0.1-0.2c0.4-0.7-0.1-1.9-0.1-2.1s0-0.4,0-0.4c-0.3,0.5,0.5,1.4,0,2.4
	c-0.3,0.6-0.9,1-1.6,1c-0.3-0.1-1-0.3-0.4-1.2l0,0c0.3,0.2,0.5,0.4,0.6,0.3s0-0.5-0.4-0.8c-0.3-0.4-0.7-0.6-0.8-0.4
	c-0.1,0.1,0,0.4,0.3,0.8c-0.1,0.1-0.8,0.7-1.1,0v-0.1l0,0c0-0.1,0-0.1-0.1-0.2v-0.1l0,0c-0.1-0.7,0.2-1.3,0.6-1.8
	c0.4-0.5,0.6-1.2,0.6-1.9c0-0.1,0-0.2,0.1-0.3c0,0-0.2,0.1-0.2,0.7c-0.1,0.5-0.3,1-0.6,1.3c0-0.7-0.2-1.3-0.6-1.8
	C38.2,7.7,38,7,38,6.3c-0.3,0.8,0.3,1.8,0.7,2.5c0.6,0.9,0.4,2-0.5,2.6c-0.2,0.1-0.4,0.2-0.7,0.3c0,0-0.9,0.1-0.7-0.9v-0.1
	c0.4,0.2,0.9,0.2,1,0c0.2-0.3-0.1-0.8-0.6-1.1s-1.1-0.4-1.3-0.1c-0.2,0.3,0.1,0.8,0.6,1.1c-0.3,0.2-1,0.7-1.3,0.1
	c0-0.1-0.1-0.2-0.1-0.2l0,0c0-0.1-0.1-0.3-0.1-0.4c0.4-4-1.2-5-1.2-5c0.1-2.7-1.6-3-1.6-3c1,0.6,1.5,1.7,1.4,2.8
	C32.8,4.1,32,3.5,31,3c-0.7-0.5-1.3-1.1-1.7-1.8c0.4,1.1,1.2,2,2.3,2.5c1.8,0.8,3,2.6,3,4.5c0,0-0.3,2.4-2.6-0.5c0.6,0,1-0.3,1-0.6
	c0.1-0.5-0.5-0.9-1.4-1.1C30.8,5.9,30,6.1,30,6.6c-0.1,0.5,0.5,0.9,1.4,1.1l0,0c0,0-0.6,2.3-2.2,1.4c-0.5-0.3-0.9-0.8-1.2-1.3
	c-0.7-1.3-1.6-2.4-2.8-3.2c-0.7-0.6-0.5-2.1-0.5-2.1c0.1-0.7-0.2-1.3-0.8-1.7c-0.7-0.4-0.8-0.6-0.9-0.7c0,0.1,0.1,0.3,0.7,0.8
	c0.5,0.3,0.7,0.8,0.7,1.4s0,1.1,0,1.7l-0.3-0.1c-1.5-0.9-3.1-1.6-4.8-2c-1.1-0.4-2.1-1-2.9-1.9c0.6,1.3,3.1,2.1,3.1,2.1
	c2.8,0.8,7.7,2.9,7.1,6.6l0,0c0,0-0.3,1.9-2.9,0.9c-0.2-0.1-0.5-0.2-0.8-0.2c0.6-0.7,0.8-1.5,0.5-2c-0.5-0.6-1.7-0.6-2.7,0.1
	c-1,0.7-1.5,1.8-1.1,2.5c0.5,0.6,1.7,0.6,2.7-0.1c0.1-0.1,0.2-0.1,0.2-0.2c0.2,0.2,0.4,0.5,0.6,0.7c0,0,1.4,1.6,0.3,2.3
	c-1.7,0.6-3.5,0.8-5.3,0.6c-3.4-0.7-7-0.4-10.3,0.7c-1.5-1.6-4-1.6-5.6-0.1L2.1,14c1.6-1.2,3.9-1.2,5.4,0.1c-1.5,0.7-2.8,1.7-3.9,3
	c-1.1,0.7-2.4,1.2-3.7,1.5c1.7-0.1,3.3-0.8,4.5-1.9c2-2.2,6.2-4.6,13-2.5c1.2,0.3,2.3,0.9,3.1,1.8c0.1,0.2,1.9,2.9-1.9,3.6
	c-0.1,0-0.3,0.1-0.4,0.1c-0.3-1.8-1.5-3.1-2.9-3.1c-1.7,0-3,1.9-3,4.2s1.3,4.2,3,4.2s3-1.9,3-4.2c0-0.2,0-0.4,0-0.5
	c0.4,0,4.3,0.5,3.6,2.5c-1.1,2.1-2.9,3.8-5.2,4.7c-4.3,2-6.3,1.9-9.8,3.6c-3.5,1.7-3.7,3.2-3.7,3.2c1-1.6,2.7-2.8,4.5-3.1
	c0,0,1.5,0.1-0.4,3.4c0,0,1.6-2.1,1.1-3.8c0,0,1.7-0.7,3.8-1.2c1.9-0.4,3.8-1,5.6-1.7c1.6-0.9,3.3-1.5,5.2-1.7
	c0.3,0,0.6,0.1,0.8,0.1c0.1,0,2.6,0.8,0.8,3.6c-0.2,0.2-0.3,0.5-0.4,0.7c-0.2-0.1-0.4-0.2-0.5-0.2c-1.6-0.8-3.7-0.2-4.5,1.5
	c-0.8,1.6-0.2,3.7,1.5,4.5c0.3,0.2,0.6,0.3,1,0.3c1.8,0.7,3.9-0.1,4.7-1.9c0.4-1.4-0.2-2.9-1.4-3.7c0.2-0.1,0.4-0.2,0.7-0.4
	c0,0,2.8-1.4,3.3,0.8c0.4,2.7-0.6,6.8-6.3,12.5c0,0-5.3,1.4-7.1,4.1c1.2-1.1,2.5-2,3.9-2.7c1-0.4,2.1-0.7,3.2-1c0,0,0.4,1.5-1.7,3.7
	c0,0,1.8-0.6,2.1-4.1c3.3-3,5.9-6.7,7.6-10.8c0.3-0.8,0.8-1.4,1.5-2c0,0,1.6-1,2.1,1.7c0,0.3,0.1,0.5,0.2,0.8l0,0
	c-1.7,0.1-3,1.2-2.9,2.4s1.5,2,3.2,1.9s3-1.2,2.9-2.4c-0.1-1.1-1.3-1.9-2.7-1.9c0.1-0.2,0.2-0.5,0.2-0.7c0,0,0.7-2.3,2-1.4
	c1.1,1.3,1.7,2.9,1.8,4.6c0.4,3-0.8,6-3.1,7.9c-1.1,0.7-1.7,1.9-1.7,3.2c0.2-1,0.6-1.9,1.3-2.6c1-0.7,1.8-1.7,2.5-2.7l0.2,0.2
	c1.2,0.9,1.6,2.5,0.9,3.8c0.3-0.6,0.5-1.3,0.5-2c-0.2-0.8-0.6-1.5-1.2-2c-0.3-0.3,0-0.8,0-0.8c2.1-3.4,0.8-9.8,0.8-9.8
	c-0.1-0.8-0.1-1.6,0.1-2.4c0.2-0.4,0.6-0.6,1.1-0.5c0.2,0.1,0.4,0.3,0.5,0.5c0,0.1,0.1,0.1,0.1,0.1c-0.2,0.2-0.5,0.4-0.6,0.7
	c-0.6,1-0.6,2.2,0.1,2.6c0.7,0.4,1.8,0,2.4-1s0.6-2.2-0.1-2.6c-0.5-0.2-1.1-0.2-1.5,0.1c0-0.1,0-0.2,0-0.2s-0.5-1.6,0.5-1.6h0.1
	c1.3,0.2,2.4,1.1,3,2.3c0.4,0.6,0.7,1.3,0.9,1.9c-0.9,1.4-1.4,3-1.4,4.6c0.8-3.7,1.5-4.2,1.5-4.2c0.7,1.9-0.5,5.7-0.5,5.7
	c2.7-6.8-1.1-8.9-2.2-11c-0.3-0.5-0.5-1-0.6-1.5c0-0.1-0.1-1.1,0.8-0.8l0,0v0.1c-0.2,0.7,0.1,1.4,0.5,1.5c0.5,0.1,1-0.4,1.1-1.2
	s-0.1-1.4-0.5-1.5s-0.8,0.3-1,0.8c-0.1-0.1-0.1-0.1-0.1-0.1s-0.7-0.5-0.2-1l0,0c0.2-0.2,0.9-0.8,2.5-0.1c1.6,0.8,2.6,2.6,2.3,4.4
	C48.1,25.8,47.9,24.6,47.2,23.6z M44.1,19.2c0.1,0,0.3,0.3,0.4,0.7c0.1,0.4,0.1,0.8-0.1,0.8c-0.1,0-0.3-0.3-0.4-0.7
	C44,19.6,44,19.2,44.1,19.2z M22,9.4c-0.8,0.6-1.7,0.7-2,0.2c-0.3-0.4,0.1-1.2,0.9-1.8s1.7-0.7,2-0.2C23.2,8,22.8,8.8,22,9.4z
	 M15.3,23.8c-1.3,0-2.4-1.4-2.4-3.2s1.1-3.2,2.4-3.2s2.4,1.4,2.4,3.2S16.6,23.8,15.3,23.8L15.3,23.8z M25.2,34.6
	c-0.6,1.3-2,1.9-3.4,1.4c-1.2-0.6-1.7-2-1.1-3.2s2-1.7,3.2-1.1C25,32.3,25.5,33.5,25.2,34.6z M36.3,9c0.1-0.1,0.5,0,0.9,0.2
	s0.6,0.6,0.6,0.7c-0.1,0.1-0.5,0-0.9-0.2C36.5,9.4,36.2,9.1,36.3,9L36.3,9z M30.3,6.5c0-0.3,0.6-0.4,1.3-0.3
	c0.7,0.1,1.2,0.4,1.2,0.7c0,0.3-0.6,0.4-1.3,0.3S30.2,6.8,30.3,6.5L30.3,6.5z M36.9,35.9c0.1,0.8-0.8,1.6-2,1.7
	c-1.2,0.1-2.2-0.5-2.3-1.4c-0.1-0.8,0.8-1.6,2-1.7C35.8,34.4,36.8,35,36.9,35.9L36.9,35.9z M38.2,22.1c-1.6,1.1-4.3,0.1-5.9-2.3
	c-1.7-2.4-1.7-5.2-0.1-6.3s4.3-0.1,5.9,2.3C39.8,18.1,39.8,21,38.2,22.1L38.2,22.1z M42.6,29.4c0.5,0.3,0.5,1.1,0.1,1.8
	c-0.4,0.7-1.2,1-1.7,0.7s-0.5-1.1-0.1-1.8C41.4,29.4,42.1,29,42.6,29.4L42.6,29.4z M43.7,24.3c0.1-0.5,0.5-0.9,0.8-0.9
	s0.5,0.6,0.4,1.1s-0.5,0.9-0.8,0.9C43.8,25.3,43.6,24.8,43.7,24.3L43.7,24.3z"/>
</svg>
