<svg xmlns="http://www.w3.org/2000/svg" xmlns:xlink="http://www.w3.org/1999/xlink" width="44" height="48" viewBox="0 0 44 48">
  <defs>
    <style>
      .cls-1 {
        fill: black;
      }

      .cls-2 {
        clip-path: url(#clip-path);
      }
    </style>
    <clipPath id="clip-path">
      <rect id="Rectangle" class="cls-1" width="44" height="48"/>
    </clipPath>
  </defs>
  <g id="nuro-logo" class="cls-2">
    <path id="Path" class="cls-1" d="M27.291,29.3a9.346,9.346,0,0,0-9.338,9.349A9.35,9.35,0,0,0,27.092,48h.4a9.352,9.352,0,0,0,9.15-9.349A9.348,9.348,0,0,0,27.291,29.3m4.366,13.767a6.192,6.192,0,0,1-8.752,0,5.946,5.946,0,0,1-1.79-4.366,6.009,6.009,0,0,1,1.79-4.386h.01a5.974,5.974,0,0,1,4.376-1.811,5.91,5.91,0,0,1,4.366,1.811,6.192,6.192,0,0,1,0,8.752m-9.852-19.5a7.471,7.471,0,0,1-2.276-5.476V8.727a1.576,1.576,0,0,1,1.508-1.573H21.2A1.575,1.575,0,0,1,22.7,8.727v9.364a4.61,4.61,0,0,0,7.855,3.25,4.443,4.443,0,0,0,1.335-3.25V8.727a1.581,1.581,0,0,1,1.523-1.573h.143a1.451,1.451,0,0,1,1.04.461,1.508,1.508,0,0,1,.462,1.112v9.364a7.463,7.463,0,0,1-2.276,5.476,7.753,7.753,0,0,1-10.979,0ZM13.25,9.428a7.482,7.482,0,0,1,2.275,5.5v9.362a1.576,1.576,0,0,1-1.556,1.559h-.035a1.518,1.518,0,0,1-1.113-.462,1.465,1.465,0,0,1-.464-1.1V14.924a4.585,4.585,0,0,0-4.585-4.6A4.46,4.46,0,0,0,4.5,11.671a4.456,4.456,0,0,0-1.334,3.253v9.362a1.476,1.476,0,0,1-.461,1.1,1.507,1.507,0,0,1-1.1.462H1.558a1.51,1.51,0,0,1-1.095-.462A1.471,1.471,0,0,1,0,24.286V14.924a7.5,7.5,0,0,1,2.276-5.5A7.489,7.489,0,0,1,7.644,7.153H7.9a7.466,7.466,0,0,1,5.35,2.275m2.057,25.727a1.583,1.583,0,0,1-1.56,1.926,1.565,1.565,0,0,1-1.527-1.164,4.469,4.469,0,0,0-1.2-2.092,4.417,4.417,0,0,0-3.245-1.351,4.574,4.574,0,0,0-4.6,4.607V46.44a1.528,1.528,0,0,1-.462,1.1,1.564,1.564,0,0,1-1.1.461H1.56a1.546,1.546,0,0,1-1.1-.461A1.488,1.488,0,0,1,0,46.44V37.081a7.481,7.481,0,0,1,2.283-5.5,7.44,7.44,0,0,1,5.36-2.271H7.9a7.438,7.438,0,0,1,5.35,2.271,7.43,7.43,0,0,1,2.053,3.571M42.921,1.078a3.68,3.68,0,0,0-6.281,2.6,3.681,3.681,0,0,0,3.674,3.685h.053a3.594,3.594,0,0,0,2.554-1.078,3.676,3.676,0,0,0,0-5.2M40.314,6.763a3.1,3.1,0,0,1-3.1-3.1,3.051,3.051,0,0,1,.91-2.188,3.092,3.092,0,0,1,2.2-.911,3.024,3.024,0,0,1,2.188.9,3.1,3.1,0,0,1-2.2,5.3m1.477-3.947a1.4,1.4,0,0,0-.419-1.026,1.436,1.436,0,0,0-1.016-.419h-.408a1.067,1.067,0,0,0-.775.325,1.11,1.11,0,0,0-.324.785V5.7a.282.282,0,0,0,.481.189.261.261,0,0,0,.084-.189V4.261h.995a.854.854,0,0,1,.565.251.819.819,0,0,1,.251.617V5.7a.247.247,0,0,0,.084.189.287.287,0,0,0,.2.083h.01a.264.264,0,0,0,.189-.083.221.221,0,0,0,.084-.2V5.129a1.361,1.361,0,0,0-.419-1.015c-.053-.052-.105-.105-.157-.147a1.709,1.709,0,0,0,.157-.136,1.375,1.375,0,0,0,.419-1.015m-.817.628a.907.907,0,0,1-.618.251h-.942V2.5a.489.489,0,0,1,.011-.126.6.6,0,0,1,.146-.282A.541.541,0,0,1,40,1.947h.356a.82.82,0,0,1,.618.251.858.858,0,0,1,.262.618.879.879,0,0,1-.262.628"/>
  </g>
</svg>
